<?xml version="1.0" standalone="yes"?>
<svg xmlns="http://www.w3.org/2000/svg" width="277" height="240">
<path style="fill:#41b983; stroke:none;" d="M0 0L15.8495 29L49.9892 88L138 240C144.757 234.208 148.758 223.7 153.15 216C162.126 200.266 171.411 184.717 180.421 169C201.666 131.943 222.982 94.9457 244.424 58C254.798 40.1258 271.181 19.7757 277 0L238 0L222.379 1.02779L214.989 12L199.397 39L139 144C114.864 112.368 97.896 73.2437 77.6034 39C72.3056 30.06 67.2739 20.9612 62.0108 12C59.9982 8.57321 58.1157 3.21198 54.6211 1.02779C50.7538 -1.38942 43.3936 0 39 0L0 0z"/>
<path style="fill:#4bb285; stroke:none;" d="M55 0L56 1L55 0z"/>
<path style="fill:#354a5f; stroke:none;" d="M56 0L79.9892 43L138 144L139 144L197.011 43L221 0L169 0L139 54L138 54L108 0L56 0z"/>
<path style="fill:#010101; stroke:none;" d="M108 0L138 54L139 54L169 0L108 0z"/>
<path style="fill:#4bb285; stroke:none;" d="M221 0L222 1L221 0z"/>
<path style="fill:#010101; stroke:none;" d="M0 2L0 240L137 240L121.281 211L88.4213 154L31.2809 55L0 2z"/>
<path style="fill:#4bb285; stroke:none;" d="M56 2L57 3L56 2M108 2L109 3L108 2M168 2L169 3L168 2M220 2L221 3L220 2z"/>
<path style="fill:#010101; stroke:none;" d="M276 2L236.424 71L139 240L277 240L277 72L277 24L276 2z"/>
<path style="fill:#4bb285; stroke:none;" d="M57 4L58 5L57 4M219 4L220 5L219 4M58 5L59 6L58 5M218 5L219 6L218 5M59 7L60 8L59 7M111 7L112 8L111 7M165 7L166 8L165 7M217 7L218 8L217 7M60 9L61 10L60 9M216 9L217 10L216 9M271 10L272 11L271 10M61 11L62 12L61 11M215 11L216 12L215 11M6 12L7 13L6 12M62 12L63 13L62 12M214 12L215 13L214 12M270 12L271 13L270 12M63 14L64 15L63 14M115 14L116 15L115 14M161 14L162 15L161 14M213 14L214 15L213 14M64 16L65 17L64 16M116 16L117 17L116 16M160 16L161 17L160 16M212 16L213 17L212 16M9 17L10 18L9 17M211 17L212 18L211 17M267 17L268 18L267 17z"/>
<path style="fill:#01ffff; stroke:none;" d="M10 19L11 20L10 19z"/>
<path style="fill:#4bb285; stroke:none;" d="M66 19L67 20L66 19M210 19L211 20L210 19z"/>
<path style="fill:#01ffff; stroke:none;" d="M266 19L267 20L266 19z"/>
<path style="fill:#4bb285; stroke:none;" d="M67 21L68 22L67 21M119 21L120 22L119 21M157 21L158 22L157 21M209 21L210 22L209 21M68 23L69 24L68 23M208 23L209 24L208 23M13 24L14 25L13 24M69 24L70 25L69 24M207 24L208 25L207 24M263 24L264 25L263 24M70 26L71 27L70 26M206 26L207 27L206 26M71 28L72 29L71 28M123 28L124 29L123 28M153 28L154 29L153 28M205 28L206 29L205 28M72 30L73 31L72 30M152 30L153 31L152 30M204 30L205 31L204 30M17 31L18 32L17 31M73 31L74 32L73 31M203 31L204 32L203 31M74 33L75 34L74 33M126 33L127 34L126 33M150 33L151 34L150 33M202 33L203 34L202 33M75 35L76 36L75 35M127 35L128 36L127 35M201 35L202 36L201 35M256 36L257 37L256 36M76 37L77 38L76 37M148 37L149 38L148 37M200 37L201 38L200 37M21 38L22 39L21 38M77 38L78 39L77 38M199 38L200 39L199 38M255 38L256 39L255 38M78 40L79 41L78 40M130 40L131 41L130 40M146 40L147 41L146 40M198 40L199 41L198 40M79 42L80 43L79 42M131 42L132 43L131 42M145 42L146 43L145 42M197 42L198 43L197 42M24 43L25 44L24 43M80 43L81 44L80 43M196 43L197 44L196 43M252 43L253 44L252 43M81 45L82 46L81 45M195 45L196 46L195 45M82 47L83 48L82 47M134 47L135 48L134 47M142 47L143 48L142 47M194 47L195 48L194 47M83 49L84 50L83 49M193 49L194 50L193 49M28 50L29 51L28 50M84 50L85 51L84 50M192 50L193 51L192 50M85 52L86 53L85 52M137 52L138 53L137 52M139 52L140 53L139 52M191 52L192 53L191 52M86 54L87 55L86 54M190 54L191 55L190 54M87 56L88 57L87 56M189 56L190 57L189 56M32 57L33 58L32 57M88 57L89 58L88 57M188 57L189 58L188 57M244 57L245 58L244 57M89 59L90 60L89 59M187 59L188 60L187 59M90 61L91 62L90 61M186 61L187 62L186 61M185 63L186 64L185 63z"/>
<path style="fill:#01ffff; stroke:none;" d="M36 64L37 65L36 64z"/>
<path style="fill:#4bb285; stroke:none;" d="M92 64L93 65L92 64M184 64L185 65L184 64z"/>
<path style="fill:#01ffff; stroke:none;" d="M240 64L241 65L240 64z"/>
<path style="fill:#4bb285; stroke:none;" d="M93 66L94 67L93 66M183 66L184 67L183 66M38 67L39 68L38 67M94 68L95 69L94 68M182 68L183 69L182 68M95 69L96 70L95 69M181 69L182 70L181 69M96 71L97 72L96 71M180 71L181 72L180 71M97 73L98 74L97 73M179 73L180 74L179 73M98 75L99 76L98 75M178 75L179 76L178 75M99 76L100 77L99 76M177 76L178 77L177 76M100 78L101 79L100 78M176 78L177 79L176 78M101 80L102 81L101 80M175 80L176 81L175 80M102 82L103 83L102 82M174 82L175 83L174 82M47 83L48 84L47 83M103 83L104 84L103 83M173 83L174 84L173 83M229 83L230 84L229 83M104 85L105 86L104 85M172 85L173 86L172 85M105 87L106 88L105 87M171 87L172 88L171 87M50 88L51 89L50 88M170 88L171 89L170 88z"/>
<path style="fill:#01ffff; stroke:none;" d="M51 90L52 91L51 90z"/>
<path style="fill:#4bb285; stroke:none;" d="M107 90L108 91L107 90M169 90L170 91L169 90z"/>
<path style="fill:#01ffff; stroke:none;" d="M225 90L226 91L225 90z"/>
<path style="fill:#4bb285; stroke:none;" d="M108 92L109 93L108 92M168 92L169 93L168 92M109 94L110 95L109 94M167 94L168 95L167 94M54 95L55 96L54 95M110 95L111 96L110 95M166 95L167 96L166 95M222 95L223 96L222 95M111 97L112 98L111 97M165 97L166 98L165 97M112 99L113 100L112 99M164 99L165 100L164 99M113 101L114 102L113 101M163 101L164 102L163 101M114 102L115 103L114 102M162 102L163 103L162 102M115 104L116 105L115 104M161 104L162 105L161 104M116 106L117 107L116 106M160 106L161 107L160 106M215 107L216 108L215 107M117 108L118 109L117 108M159 108L160 109L159 108M62 109L63 110L62 109M118 109L119 110L118 109M158 109L159 110L158 109M214 109L215 110L214 109M119 111L120 112L119 111M157 111L158 112L157 111M120 113L121 114L120 113M156 113L157 114L156 113M65 114L66 115L65 114M121 114L122 115L121 114M155 114L156 115L155 114M211 114L212 115L211 114z"/>
<path style="fill:#01ffff; stroke:none;" d="M66 116L67 117L66 116z"/>
<path style="fill:#4bb285; stroke:none;" d="M122 116L123 117L122 116M154 116L155 117L154 116z"/>
<path style="fill:#01ffff; stroke:none;" d="M210 116L211 117L210 116z"/>
<path style="fill:#4bb285; stroke:none;" d="M123 118L124 119L123 118M153 118L154 119L153 118M124 120L125 121L124 120M152 120L153 121L152 120M69 121L70 122L69 121M125 121L126 122L125 121M151 121L152 122L151 121M207 121L208 122L207 121M126 123L127 124L126 123M150 123L151 124L150 123M127 125L128 126L127 125M149 125L150 126L149 125M128 127L129 128L128 127M148 127L149 128L148 127M73 128L74 129L73 128M129 128L130 129L129 128M147 128L148 129L147 128M130 130L131 131L130 130M146 130L147 131L146 130M131 132L132 133L131 132M145 132L146 133L145 132M200 133L201 134L200 133M132 134L133 135L132 134M144 134L145 135L144 134M77 135L78 136L77 135M133 135L134 136L133 135M143 135L144 136L143 135M199 135L200 136L199 135M134 137L135 138L134 137M142 137L143 138L142 137M135 139L136 140L135 139M141 139L142 140L141 139M80 140L81 141L80 140M136 140L137 141L136 140M140 140L141 141L140 140M137 142L138 143L137 142M139 142L140 143L139 142M84 147L85 148L84 147M88 154L89 155L88 154M188 154L189 155L188 154z"/>
<path style="fill:#01ffff; stroke:none;" d="M92 161L93 162L92 161M184 161L185 162L184 161z"/>
<path style="fill:#4bb285; stroke:none;" d="M94 164L95 165L94 164M102 178L103 179L102 178M103 180L104 181L103 180M173 180L174 181L173 180M106 185L107 186L106 185z"/>
<path style="fill:#01ffff; stroke:none;" d="M107 187L108 188L107 187M169 187L170 188L169 187z"/>
<path style="fill:#4bb285; stroke:none;" d="M110 192L111 193L110 192M166 192L167 193L166 192M159 204L160 205L159 204M118 206L119 207L118 206M158 206L159 207L158 206M121 211L122 212L121 211M155 211L156 212L155 211z"/>
<path style="fill:#01ffff; stroke:none;" d="M122 213L123 214L122 213M154 213L155 214L154 213z"/>
<path style="fill:#4bb285; stroke:none;" d="M125 218L126 219L125 218M151 218L152 219L151 218M129 225L130 226L129 225M144 230L145 231L144 230M133 232L134 233L133 232M143 232L144 233L143 232M136 237L137 238L136 237z"/>
<path style="fill:#01ffff; stroke:none;" d="M137 239L138 240L137 239z"/>
</svg>
